<svg width="284" height="284" viewBox="0 0 284 284" fill="none" xmlns="http://www.w3.org/2000/svg">
<rect width="284" height="284" fill="#477AFF"/>
<rect x="46" y="66" width="146" height="33.8758" fill="white"/>
<rect x="147.227" y="66" width="44.7733" height="113.41" fill="white"/>
<rect x="46" y="145.533" width="146" height="33.8758" fill="white"/>
<rect x="46" y="145.533" width="44.7733" height="104.573" fill="white"/>
<rect x="46" y="216.232" width="146" height="33.8758" fill="white"/>
<path d="M237.479 22.4616C254.185 22.6842 267.547 36.4065 267.324 53.1124C267.101 69.8182 253.379 83.1797 236.673 82.9571L206.425 82.5541L215.403 73.8126C212.628 70.9695 210.441 67.6059 208.97 63.9151C207.498 60.2244 206.77 56.2792 206.828 52.3063C207.051 35.6005 220.773 22.239 237.479 22.4616ZM249.135 55.8953L224.937 55.5729C224.894 58.7818 226.128 61.8762 228.367 64.1755C230.605 66.4747 233.666 67.7905 236.875 67.8332C240.084 67.876 243.178 66.6423 245.477 64.4035C247.777 62.1647 249.092 59.1042 249.135 55.8953Z" fill="white"/>
<path d="M255.754 48.7343L254.775 48.1515L256.534 45.1964C256.689 44.9352 256.735 44.6232 256.662 44.3292C256.588 44.0352 256.401 43.7832 256.141 43.6286L254.51 42.6574L255.096 41.6723C255.251 41.4111 255.297 41.0992 255.224 40.8051C255.15 40.5111 254.963 40.2591 254.703 40.1046L252.745 38.939C252.485 38.7845 252.175 38.74 251.881 38.8155C251.588 38.8909 251.335 39.0801 251.18 39.3413L248.248 44.2664L243.679 41.5469L246.611 36.6217C246.767 36.3605 246.813 36.0485 246.739 35.7545C246.665 35.4605 246.478 35.2085 246.218 35.0539L244.26 33.8884C244.001 33.7339 243.69 33.6894 243.396 33.7649C243.103 33.8403 242.85 34.0294 242.695 34.2907L242.109 35.2757L240.477 34.3044C240.217 34.1499 239.906 34.1054 239.613 34.1809C239.319 34.2563 239.067 34.4455 238.912 34.7067L237.153 37.6618L236.174 37.079C236.087 37.0275 235.983 37.0127 235.886 37.0379C235.788 37.063 235.704 37.126 235.652 37.2131C235.6 37.3002 235.585 37.4042 235.609 37.5022C235.634 37.6002 235.696 37.6842 235.783 37.7357L236.762 38.3185L235.003 41.2736C234.847 41.5348 234.801 41.8468 234.875 42.1408C234.948 42.4348 235.136 42.6868 235.395 42.8414L237.027 43.8126L236.441 44.7977C236.285 45.0589 236.239 45.3709 236.313 45.6649C236.386 45.9589 236.574 46.2109 236.833 46.3655L238.791 47.531C239.051 47.6855 239.362 47.73 239.655 47.6546C239.949 47.5791 240.201 47.39 240.357 47.1287L243.288 42.2036L247.857 44.9231L244.925 49.8483C244.77 50.1095 244.724 50.4215 244.798 50.7155C244.871 51.0095 245.059 51.2615 245.318 51.4161L247.276 52.5816C247.536 52.7362 247.847 52.7806 248.14 52.7052C248.434 52.6297 248.686 52.4406 248.842 52.1793L249.428 51.1943L251.06 52.1656C251.319 52.3201 251.63 52.3646 251.924 52.2891C252.217 52.2137 252.469 52.0245 252.625 51.7633L254.384 48.8082L255.363 49.391C255.45 49.4425 255.553 49.4573 255.651 49.4322C255.749 49.407 255.833 49.344 255.885 49.2569C255.937 49.1698 255.952 49.0658 255.927 48.9678C255.903 48.8698 255.84 48.7858 255.754 48.7343ZM235.786 42.1847C235.7 42.1332 235.637 42.0492 235.613 41.9512C235.588 41.8531 235.603 41.7492 235.655 41.6621L239.564 35.0952C239.616 35.0081 239.7 34.9451 239.798 34.9199C239.896 34.8948 239.999 34.9096 240.086 34.9611L241.718 35.9324L237.418 43.156L235.786 42.1847ZM239.704 46.7402C239.652 46.8273 239.568 46.8903 239.47 46.9155C239.372 46.9406 239.269 46.9258 239.182 46.8743L237.224 45.7088C237.138 45.6573 237.075 45.5733 237.051 45.4752C237.026 45.3772 237.042 45.2733 237.093 45.1862L243.348 34.6792C243.399 34.5921 243.484 34.5291 243.581 34.5039C243.679 34.4788 243.783 34.4936 243.869 34.5451L245.827 35.7106C245.914 35.7622 245.976 35.8462 246.001 35.9442C246.026 36.0422 246.01 36.1461 245.958 36.2332L239.704 46.7402ZM248.189 51.7908C248.137 51.8779 248.053 51.941 247.955 51.9661C247.857 51.9912 247.754 51.9764 247.667 51.9249L245.709 50.7594C245.622 50.7079 245.56 50.6239 245.536 50.5259C245.511 50.4278 245.526 50.3239 245.578 50.2368L251.832 39.7298C251.884 39.6427 251.968 39.5797 252.066 39.5545C252.164 39.5294 252.268 39.5442 252.354 39.5957L254.312 40.7612C254.399 40.8128 254.461 40.8968 254.486 40.9948C254.51 41.0928 254.495 41.1968 254.443 41.2838L248.189 51.7908ZM251.972 51.3748C251.92 51.4619 251.836 51.5249 251.738 51.5501C251.641 51.5752 251.537 51.5604 251.45 51.5089L249.819 50.5376L254.119 43.3141L255.75 44.2853C255.837 44.3369 255.899 44.4209 255.924 44.5189C255.948 44.6169 255.933 44.7208 255.881 44.8079L251.972 51.3748Z" fill="white"/>
</svg>
